<?xml version="1.0"?>
<svg version="1.1" xmlns="http://www.w3.org/2000/svg">

<!-- white NW-SE straight -->
<path d=" M 98,0 L 294,0 L 392,170 L 294,340 L 98,340 L 0,170 Z" fill="#38AC00" stroke="#38AC00" stroke-width="1" stroke-linejoin="round"/>
<text x="245" y="318" dy="0.3em" fill="#000000" stroke="#000000" text-anchor="middle" font-family="Arial" font-size="31" font-weight="bold">298</text>

<!-- white NW-SE straight -->
<path d="M 49,85 L 343,255" fill="none" stroke="#FFFFFF" stroke-width="34" stroke-linecap="butt" stroke-linejoin="round"/>
<!-- white NW-S gentle curve -->
<path d="M 196,340 A 294,294 0 0,0 49,85" fill="none" stroke="#FFFFFF" stroke-width="34" stroke-linecap="butt" stroke-linejoin="round"/>
<!-- white NW-NE gentle curve -->
<path d="M 49,85 A 294,294 0 0,0 343,85" fill="none" stroke="#FFFFFF" stroke-width="34" stroke-linecap="butt" stroke-linejoin="round"/>
<!-- white NW-N tight curve -->
<path d="M 49,85 A 98,98 0 0,0 196,0" fill="none" stroke="#FFFFFF" stroke-width="34" stroke-linecap="butt" stroke-linejoin="round"/>

<!-- cities, white -->
<circle cx="178" cy="58" r="51" fill="#FFFFFF" stroke="#FFFFFF" stroke-width="12"/>
<circle cx="286" cy="111" r="51" fill="#FFFFFF" stroke="#FFFFFF" stroke-width="12"/>
<circle cx="289" cy="222" r="51" fill="#FFFFFF" stroke="#FFFFFF" stroke-width="12"/>
<circle cx="184" cy="264" r="51" fill="#FFFFFF" stroke="#FFFFFF" stroke-width="12"/>

<!-- black NW-SE straight -->
<path d="M 49,85 L 343,255" fill="none" stroke="#000000" stroke-width="26" stroke-linecap="butt" stroke-linejoin="round"/>
<!-- black NW-S gentle curve -->
<path d="M 196,340 A 294,294 0 0,0 49,85" fill="none" stroke="#000000" stroke-width="26" stroke-linecap="butt" stroke-linejoin="round"/>
<!-- black NW-NE gentle curve -->
<path d="M 49,85 A 294,294 0 0,0 343,85" fill="none" stroke="#000000" stroke-width="26" stroke-linecap="butt" stroke-linejoin="round"/>
<!-- white NW-N tight curve -->
<path d="M 49,85 A 98,98 0 0,0 196,0" fill="none" stroke="#000000" stroke-width="26" stroke-linecap="butt" stroke-linejoin="round"/>

<!-- cities, black -->
<circle cx="178" cy="58" r="51" fill="#FFFFFF" stroke="#000000" stroke-width="4"/>
<circle cx="286" cy="111" r="51" fill="#FFFFFF" stroke="#000000" stroke-width="4"/>
<circle cx="289" cy="222" r="51" fill="#FFFFFF" stroke="#000000" stroke-width="4"/>
<circle cx="184" cy="264" r="51" fill="#FFFFFF" stroke="#000000" stroke-width="4"/>

<!-- cost -->
<ellipse rx="31" ry="30" cx="90" cy="234" fill="#FFFFFF" stroke="#000000" stroke-width="2" stroke-linejoin="round"/>
<text x="90" y="234" dy="0.3em" fill="#000000" stroke="#000000" text-anchor="middle" font-family="Bookman Old Style" font-size="43">40</text>

<!-- "chi" -->
<text x="52" y="170" dy="0.3em" fill="#000000" stroke="#000000" text-anchor="middle" font-family="Bookman Old Style" font-size="43">CHI</text>

<!-- outline -->
<path d=" M 98,0 L 294,0 L 392,170 L 294,340 L 98,340 L 0,170 Z" fill="none" stroke="black" stroke-width="1" stroke-linejoin="round"/>
</svg>
